<svg xmlns="http://www.w3.org/2000/svg" width="500" height="500"><path fill="#010000" d="M0 0h500v500H0z"/><path fill="#FDFCFC" d="M253 237c1.992 2.006 3.742 4.166 5.55 6.34 4.358 4.732 9.548 8.442 14.668 12.309a396 396 0 0 1 4.942 3.816c6.19 4.827 12.483 9.494 18.84 14.098l2.307 1.688c3.501 2.543 6.99 4.979 10.732 7.155 3.294 1.954 6.28 3.815 8.961 6.594 1.038 4.212.838 7.768 0 12h-3l1.5 2.75C319 307 319 307 319 311h5q.76 2.841 1.5 5.688l.844 3.199c.595 2.824.784 5.241.656 8.113l-1.723-1.02c-2.603-1.12-3.938-1.067-6.714-.668-1.112.15-1.112.15-2.247.301-2.448.409-4.882.9-7.316 1.387v31c9.46-.852 9.46-.852 15-6 .787 2.777 1.12 5.226 1.098 8.11l-.01 2.285-.026 2.355-.013 2.402q-.02 2.925-.049 5.848l-2-1h-13l1 29 7.188-1.312c.737-.13 1.475-.26 2.235-.392 4.086-.783 7.16-1.927 10.577-4.296.1 6.11.071 11.974-1 18-6.616 1.829-13.193 2.79-20 3.625l-3.215.406q-3.892.49-7.785.969l.492-2.192c.48-2.652.637-5.041.64-7.73l.008-2.834-.015-2.994-.015-3.083A1197 1197 0 0 0 300 391l-.038-2.655c-.045-2.325-.121-4.646-.212-6.97l-.14-3.977c-.692-3.856-1.93-5.6-4.61-8.398l.938-2.312c1.445-3.657 2.177-6.257 1.976-10.16l-.13-2.702-.159-2.889-.153-2.96q-.156-3.018-.32-6.036c-.142-2.74-.262-5.48-.375-8.222l-.214-4.781-.082-2.214c-.195-3.96-.756-7.141-2.481-10.724l7-2-16-8 3.625 5.188c2.04 2.917 2.04 2.917 3.375 5.812-.727 2.738-.727 2.738-2 5-1.262 2.525-1.311 4.572-1.535 7.39l-.265 3.322c-2.728 17.364-2.728 17.364.32 33.64L290 368c-1.007 2.168-1.965 3.959-3.515 5.792-1.803 2.68-2.075 4.594-2.434 7.794l-.382 3.302-.356 3.487-.384 3.548c-1.01 9.802-1.875 19.348.071 29.077l-16 2 .313-6.125c.19-8.727-1.294-17.241-2.75-25.812l-.35-2.076c-.548-6.984-.548-6.984-3.213-12.987-2.005 15.733-3.488 31.133-3 47h-15l1-3c.074-8.592-1.48-17.328-2.687-25.812l-.413-3.253c-.963-6.38-2.32-10.463-6.766-15.223C233 374 233 374 233.263 371.844 234 370 234 370 235 369c.632-8.744-.5-17.311-1.812-25.937l-.502-3.612-.518-3.478-.46-3.117c-.762-3.072-2.024-5.199-3.708-7.856v-2h15l-.187 5.23c0 9.5 1.657 18.73 3.187 28.082l.867 5.46Q247.918 368.386 249 375c1.305-7.42 2.427-14.81 3.125-22.312l.253-2.717c1.895-13.945 1.895-13.945-1.378-26.971 5.72-.832 11.222-1.12 17-1l-1 2.063c-1.998 5.869-.832 11.213.434 17.097.84 4.211 1.382 8.456 1.966 12.71.645 4.546 1.403 9.071 2.166 13.599l.42 2.499L273 376q.873-7.62 1.709-15.247.285-2.58.582-5.16c1.367-11.921 1.955-23.595 1.709-35.593v-2a158 158 0 0 0-5-6.125l-1.445-1.707Q268.783 308.08 267 306v8c-4.23-2.397-7.993-5.202-11.812-8.187l-1.811-1.405q-2.19-1.7-4.377-3.408l-.371 2.23c-.605 2.663-1.428 4.677-2.691 7.082l-1.098 2.114L244 314l-2.25-2.375c-2.722-2.856-2.722-2.856-6.75-4.625l-10 9c-2.803-5.607-3.044-9.775-3-16l-1.573 1.162q-3.552 2.613-7.114 5.213l-2.475 1.828-2.412 1.758-2.206 1.619c-2.33 1.49-4.626 2.475-7.22 3.42-3-4.75-3-4.75-3-7l-2.266 1.277-2.984 1.66-2.953 1.653c-2.333 1.176-4.25 1.931-6.797 2.41.115-1.418.243-2.834.375-4.25.07-.789.14-1.578.21-2.39.43-2.446 1.201-4.208 2.415-6.36l-2.336 1.531-3.039 1.969-3.023 1.969C173 309 173 309 171 309c-.25-3.964-.43-7.925-.55-11.896a223 223 0 0 0-.329-6.004c-.242-9.592-.242-9.592 2.95-13.887 2.534-2.294 5.116-4.275 7.929-6.213a182 182 0 0 0 3.137-2.602l2.55-2.023c3.781-3.059 7.274-6.212 10.649-9.707 2.373-2.38 4.934-4.519 7.492-6.695 3.411-3.099 6.486-6.523 9.582-9.934 5.498-4.328 13.143-3.137 19.84-3.039q2.664.039 5.328.063l2.357.035c9.965-.472 9.965-.472 11.065-.098"/><path fill="#D40015" d="M381 164h4c8.727 18.584 14.852 38.326 15 59q.089 2.46.184 4.918c.605 20.79-2.747 40.67-10.184 60.082l1.868.363 2.452.504 2.43.488c3.54 1.015 5.087 2.719 7.25 5.645 3.144 6.907 3.926 13.68 4.688 21.188l.392 3.462c2.253 21.09 2.253 21.09-1.326 31.034-1.853 5.692-1.77 9.392.195 15.07l.648 1.889q.681 1.966 1.38 3.925c.708 1.987 1.39 3.98 2.068 5.977 2.032 5.827 3.811 10.748 7.955 15.455q-3.936 1.255-7.875 2.5l-2.262.723C404.227 398 404.227 398 402 398l.246-2.105c.711-11.455-3.293-21.304-7.246-31.895h-4c-.162 18.567-.162 18.567 5 36q-2.873.758-5.75 1.5l-3.234.844C384 403 384 403 380 403l.5-2.437c1.262-8.995.208-18.116-.562-27.121a440 440 0 0 1-.355-4.536c-.16-2.206-.346-4.409-.536-6.613l-.318-3.952c-.81-3.708-1.806-5.007-4.729-7.341l.988-2.418c1.246-4.411 1.268-8.34 1.2-12.894l-.002-2.436c-.04-5.481-.504-10.814-1.186-16.252l-2 2c-4.34-.372-8.074-2.23-12-4q.809 5.9 1.68 11.791.33 2.286.645 4.574c.334 2.423.69 4.841 1.05 7.26l.308 2.332c.734 4.76 1.87 6.801 5.317 10.043-.234 1.852-.234 1.852-1 4-.584 8.512.22 16.262 2.21 24.535.794 3.482 1.316 6.927 1.79 10.465.667 4.64 1.618 7.993 4 12v2q-2.34.762-4.687 1.5l-2.637.844c-2.67.655-4.94.774-7.676.656l.254-2.273c.676-6.797.642-12.957-.254-19.727l-13 3a836 836 0 0 0-.125 7.625l-.05 2.16-.02 2.13-.032 1.935c.224 2.856.224 2.856 2.227 8.15l-16 3 1-5c1.17-9.492 1.133-19.076 1.188-28.625l.039-3.776.003-3.576.013-3.22c-.244-2.815-.89-4.37-2.243-6.803.297-2.304 1.007-4.015 2.008-6.11 1.277-3.72 1.461-7.309 1.617-11.202l.113-2.46c.286-7.032.365-14.065.387-21.103l.014-3.115-.006-2.94-.004-2.6c-.134-2.573-.564-4.96-1.129-7.47h4l-.092-2.467c-.952-26.515-1.011-53.003-.908-79.533h23v-12l3.5-.062c3.958-.45 5.879-1.81 8.781-4.497l2.127-1.943L380 203c-13.339.584-26.671 1.227-40 2v-8h2v-8c15.56-5.403 15.56-5.403 22-5l-.25-3.25c.25-3.75.25-3.75 1.75-6 2.272-1.59 3.855-2.275 6.438-3.125 3.203-1.064 4.774-2.119 6.812-4.812z"/><path fill="#D40014" d="M344.05 111.93A359 359 0 0 1 353 120l2.398 2.219A128 128 0 0 1 370 139v2l-2.535.168q-4.708.313-9.416.632-3.018.202-6.037.401l-3.887.264-3.555.238c-3.197.266-6.363.649-9.544 1.06-30.714 3.598-62.4 2.456-93.273 2.483q-4.44.006-8.877.02c-25.029.06-49.907-.501-74.876-2.266l-3.283-.231c-5.827-.419-11.647-.891-17.467-1.394l-4.855-.406q-5.699-.477-11.395-.969c13.35-27.52 47.485-46.977 75.21-56.782 49.791-16.404 107.593-6.309 147.84 27.711"/><path fill="#D40015" d="M106 164h4l3.305 4.41c2.895 2.716 6.525 3.523 10.27 4.633C126 174 126 174 128 177c.08 2.332.088 4.668 0 7l3.875.313c12.844 1.406 12.844 1.406 16.125 4.687l.438 3.5.562 3.5 2 1v7c-13.376.12-26.65-.146-40-1 4.802 4.777 8.07 7.856 15 8v12h24c.102 28.687.095 57.331-1 86l-2-2h-4l4 2-.983 1.947c-1.344 4.034-1.304 7.674-1.283 11.897l-.005 2.566q-.002 2.678.01 5.355c.011 2.726 0 5.45-.012 8.176q0 2.608.007 5.215l-.012 2.46c.036 4.307.465 7.406 2.278 11.384-.311 2.678-.798 4.596-2 7-.1 3.004-.14 5.984-.133 8.988l-.003 2.713q0 2.847.006 5.692.005 4.346-.007 8.691 0 2.764.004 5.53l-.006 2.62c.016 4.053.123 7.811 1.139 11.766q-3.438-.463-6.875-.937l-3.867-.528C132 409 132 409 130 408l1-2.062c2.474-7.267.194-14.081-1.687-21.25l-.82-3.202c-1.848-7.169-3.775-14.316-5.843-21.425-1.522-5.299-2.63-10.644-3.65-16.061-.812 22.557-.812 22.557-1.187 45.125l-.04 2.791c-.007 4.774.367 8.6 2.227 13.084-5.569-.48-10.67-1.3-16-3l.96-2.645c3.065-9.893 2.161-21.22 2.228-31.48l.04-3.632.002-3.438.013-3.095c-.248-2.767-.952-4.297-2.243-6.71.526-4.526.526-4.526 2-6 1.223-8.917 1.306-18.015 1.438-27l.138-3.867c.095-8.038-1.096-13.427-5.055-20.426-2.108-3.752-3.42-7.616-4.709-11.707l-.752-2.333c-4.929-15.486-7.423-30.545-7.376-46.777.003-2.256-.02-4.51-.045-6.765C90.597 216.37 91.706 207.489 94 198l.912-3.854C101.01 168.989 101.01 168.989 106 164"/><path fill="#D40115" d="M170 223h151c0 18.432-.1 36.828-.5 55.25l-.145 6.988Q320.182 293.62 320 302l-2-1 1-12-4-2q-1.755-1.11-3.469-2.285l-1.961-1.344-2.07-1.433-2.157-1.49c-6.236-4.33-12.319-8.829-18.343-13.448l-3.102-2.36A1294 1294 0 0 1 274 257l-1.938-1.499a1164 1164 0 0 1-6-4.689l-1.862-1.438c-3.784-2.995-6.873-6.15-9.855-9.95-1.385-1.686-1.385-1.686-4.22-2.424-3.211-.076-3.211-.076-6.695.523-4 .526-7.819.4-11.839.207-9.228-.687-9.228-.687-17.216 3.145A108 108 0 0 0 211 245a377 377 0 0 1-5 5l-2.562 2.59c-2.702 2.67-5.502 5.172-8.387 7.64-2.327 2.008-4.593 4.075-6.863 6.145C173.085 280 173.085 280 171 280c-1.163-19.042-1-37.865-1-57"/><path fill="#E5E5E5" d="M278 308q2.563 1.455 5.117 2.926c1.55.884 3.12 1.734 4.695 2.574 2.465 1.69 3.5 2.576 4.188 5.5l-1.423 2.278c-1.749 3.019-2.066 4.95-2.307 8.406l-.246 3.292-.212 3.462-.237 3.531c-1.893 13.687-1.893 13.687.945 26.383L290 368c-1.007 2.168-1.965 3.959-3.515 5.792-1.803 2.68-2.075 4.594-2.434 7.794l-.382 3.302-.356 3.487-.384 3.548c-1.01 9.802-1.875 19.348.071 29.077l-16 2 .313-6.125c.19-8.727-1.294-17.241-2.75-25.812l-.35-2.076c-.548-6.984-.548-6.984-3.213-12.987-2.005 15.733-3.488 31.133-3 47h-15l1-3c.074-8.592-1.48-17.328-2.687-25.812l-.413-3.253c-.963-6.38-2.32-10.463-6.766-15.223C233 374 233 374 233.263 371.844 234 370 234 370 235 369c.632-8.744-.5-17.311-1.812-25.937l-.502-3.612-.518-3.478-.46-3.117c-.762-3.072-2.024-5.199-3.708-7.856v-2h15l-.187 5.23c0 9.5 1.657 18.73 3.187 28.082l.867 5.46Q247.918 368.386 249 375c1.305-7.42 2.427-14.81 3.125-22.312l.253-2.717c1.895-13.945 1.895-13.945-1.378-26.971 5.72-.832 11.222-1.12 17-1l-1 2.063c-1.998 5.869-.832 11.213.434 17.097.84 4.211 1.382 8.456 1.966 12.71.645 4.546 1.403 9.071 2.166 13.599l.42 2.499L273 376q.873-7.62 1.709-15.247.285-2.58.582-5.16c1.153-10.049 1.935-19.918 1.723-30.04-.105-5.372-.105-5.372.986-7.553a95 95 0 0 0 .063-5.125l-.028-2.758z"/><path fill="#E7E6E6" d="M400.25 290.375c7.011 6.693 7.621 16.753 8.5 25.938l.379 3.435c2.183 21.052 2.183 21.052-1.375 30.936-1.853 5.692-1.77 9.392.195 15.07l.648 1.889q.681 1.966 1.38 3.925c.708 1.987 1.39 3.98 2.068 5.977 2.032 5.827 3.811 10.748 7.955 15.455q-3.936 1.255-7.875 2.5l-2.262.723C404.227 398 404.227 398 402 398l.246-2.105c.711-11.455-3.293-21.304-7.246-31.895h-4c-.162 18.567-.162 18.567 5 36q-2.873.758-5.75 1.5l-3.234.844C384 403 384 403 380 403l.5-2.437c1.262-8.995.208-18.116-.562-27.121a440 440 0 0 1-.355-4.536c-.16-2.206-.346-4.409-.536-6.613l-.318-3.952c-.81-3.708-1.806-5.007-4.729-7.341l.984-2.473c1.168-4.056 1.316-7.784 1.266-11.964l-.016-2.454c-.102-6.848-.547-13.66-1.109-20.484l-.237-2.97c-.418-4.595-.943-8.421-2.888-12.655v-3a784 784 0 0 1 8-3l2.254-.867c6.221-2.272 11.665-3.437 17.996-.758"/><path fill="#E6E5E5" d="M149 296v13l-2-2h-4l4 2-.983 1.947c-1.344 4.034-1.304 7.674-1.283 11.897l-.005 2.566q-.002 2.678.01 5.355c.011 2.726 0 5.45-.012 8.176q0 2.608.007 5.215l-.012 2.46c.036 4.307.465 7.406 2.278 11.384-.311 2.678-.798 4.596-2 7-.1 3.004-.14 5.984-.133 8.988l-.003 2.713q0 2.847.006 5.692c.005 2.897 0 5.794-.007 8.691q0 2.764.004 5.53l-.006 2.62c.016 4.053.123 7.811 1.139 11.766q-3.438-.463-6.875-.937l-3.867-.528C132 409 132 409 130 408l1-2.062c2.474-7.267.194-14.081-1.687-21.25l-.82-3.202c-1.848-7.169-3.775-14.316-5.843-21.425-1.522-5.299-2.63-10.644-3.65-16.061-.812 22.557-.812 22.557-1.187 45.125l-.04 2.791c-.007 4.774.367 8.6 2.227 13.084-5.569-.48-10.67-1.3-16-3l.96-2.645c3.065-9.893 2.161-21.22 2.228-31.48l.04-3.632.002-3.438.013-3.095c-.248-2.767-.952-4.297-2.243-6.71.526-4.526.526-4.526 2-6 1.294-9.052 1.152-18.254 1.125-27.375l.012-4.02-.004-3.878-.004-3.482c-.126-3.163-.537-6.138-1.129-9.245h4v2l2.117.402 2.758.536 2.742.527C121 301 121 301 123 302l-.33 1.71c-1.183 7.834.433 14.297 2.517 21.853 2.776 10.45 5.334 20.902 7.813 31.437l1-49h-10c4.204-2.803 8.792-4.457 13.457-6.367C141.118 299.946 145.006 296 149 296M360 300l-.097 2.226c-.211 8.93.86 17.295 2.44 26.061.411 2.3.793 4.605 1.173 6.91q.388 2.217.78 4.432l.336 2.067c.814 4.337 2.086 6.413 5.368 9.304-.234 1.852-.234 1.852-1 4-.584 8.512.22 16.262 2.21 24.535.794 3.482 1.316 6.927 1.79 10.465.667 4.64 1.618 7.993 4 12v2q-2.34.762-4.687 1.5l-2.637.844c-2.67.655-4.94.774-7.676.656l.254-2.273c.676-6.797.642-12.957-.254-19.727l-13 3a836 836 0 0 0-.125 7.625l-.05 2.16-.02 2.13-.032 1.935c.224 2.856.224 2.856 2.227 8.15l-16 3 1-5c1.17-9.492 1.133-19.076 1.188-28.625l.039-3.776.003-3.576.013-3.22c-.244-2.815-.89-4.37-2.243-6.803.297-2.304 1.007-4.015 2.008-6.11 1.277-3.72 1.461-7.309 1.617-11.202l.113-2.46c.286-7.032.365-14.065.387-21.103l.014-3.115-.006-2.94-.004-2.6c-.134-2.573-.564-4.96-1.129-7.47 3.103-.84 6.207-1.67 9.313-2.5l2.67-.723 2.568-.683 2.364-.635C357 300 357 300 360 300"/><path fill="#D00014" d="M172 189c1.161.09 1.161.09 2.346.184 23.41 1.73 46.791 2.016 70.254 2.004q3.564 0 7.13.002c22.478.004 44.846-.548 67.27-2.19l.438 3.438c.174 3.37.174 3.37 1.562 4.562.072 1.52.084 3.042.063 4.563l-.028 2.503L321 206c-26.803 1.598-53.576 2.222-80.421 2.247q-3.43.005-6.86.018c-21.642.068-43.13-.751-64.719-2.265v-9l2-1c.407-2.322.744-4.657 1-7"/><path fill="#E6E6E6" d="M173 313c7.544 3.092 12.025 8.857 15.188 16.195 1.366 4.718 1.46 9.474 1.636 14.352.15 2.942.505 5.593 1.176 8.453q-2.625-.214-5.25-.437l-2.953-.247c-2.362-.267-4.516-.67-6.797-1.316l.484-2.086c.57-3.22.72-6.27.766-9.539l.078-3.414c-.091-2.92-.091-2.92-1.582-4.816-2.062-1.352-3.487-1.632-5.934-1.832L166 328c-1.702 5.107-1.227 10.466-1.25 15.813l-.062 3.564c-.028 6.012-.014 10.4 3.312 15.623-.268 3.126-1.202 4.302-3 7-.442 4.11-.324 8.243-.312 12.375l-.05 3.445-.001 3.328-.01 3.037c.435 3.281 1.409 5.171 3.373 7.815 2.253.81 2.253.81 4.688.813l2.449.144L177 401q.04-3.875.063-7.75l.025-2.21c.016-3.597-.21-6.525-1.088-10.04l14 1c1 3 1 3 0 6-.128 2.395-.228 4.79-.312 7.188-.435 8.023-2.068 12.745-7.25 18.812-4.848 2.82-8.956 2.882-14.438 2-6.998-3.435-10.372-8.87-13.14-15.915-1.675-6.006-1.428-12.204-1.423-18.397a684 684 0 0 0-.066-7.989l-.002-3.536c-.404-3.467-1.501-5.271-3.369-8.163.75-2.125.75-2.125 2-4 1.083-3.25 1.157-5.718 1.21-9.137.03-1.217.058-2.435.087-3.69q.078-3.83.133-7.663c.233-9.248.97-16.484 7.57-23.51 3.75-1.875 7.917-1.531 12-1M299 301c3.862 1.382 6.898 3.215 10.25 5.563 5.11 3.342 8.685 4.338 14.75 4.437q.76 2.841 1.5 5.688l.844 3.199c.595 2.824.784 5.241.656 8.113l-1.723-1.02c-2.603-1.12-3.938-1.067-6.714-.668-1.112.15-1.112.15-2.247.301-2.448.409-4.882.9-7.316 1.387v31c9.46-.852 9.46-.852 15-6 .787 2.777 1.12 5.226 1.098 8.11l-.01 2.285-.026 2.355-.013 2.402q-.02 2.925-.049 5.848l-2-1h-13l1 29 7.188-1.312c.737-.13 1.475-.26 2.235-.392 4.086-.783 7.16-1.927 10.577-4.296.1 6.11.071 11.974-1 18-6.616 1.829-13.193 2.79-20 3.625l-3.215.406q-3.892.49-7.785.969l.492-2.192c.48-2.652.637-5.041.64-7.73l.008-2.834-.015-2.994-.015-3.083A1197 1197 0 0 0 300 391l-.038-2.655c-.045-2.325-.121-4.646-.212-6.97l-.14-3.977c-.692-3.856-1.93-5.6-4.61-8.398l.938-2.312c1.445-3.657 2.177-6.257 1.976-10.16l-.13-2.702-.159-2.889-.153-2.96q-.156-3.018-.32-6.036c-.142-2.74-.262-5.48-.375-8.222l-.214-4.781-.082-2.214c-.195-3.96-.756-7.141-2.481-10.724l3.75-1 2.11-.562C302 314 302 314 306 314l-1.531-2.59-1.969-3.348-1.969-3.34C299 302 299 302 299 301"/><path fill="#E3E3E3" d="M193 318q6.345.715 12.688 1.438l3.63.408 3.506.4 3.222.365c2.685.354 5.306.822 7.954 1.389q.76 3.06 1.5 6.125l.844 3.445c.62 3.245.776 6.138.656 9.43l-2.687-2.375c-5.354-3.637-5.354-3.637-17.313-4.625v31c10.957.894 10.957.894 16-2v21l-5-4-11-1v28l8.25.125 2.58.055c5.36.057 5.36.057 10.17-2.18.105 5.786-.007 11.293-1 17-6.724.22-13.257-.237-19.937-.937l-2.549-.264c-3.36-.367-6.292-.725-9.514-1.799l.487-2.439c.606-4.207.694-8.293.716-12.538l.017-2.568q.014-2.676.02-5.35c.01-2.728.041-5.455.072-8.183q.01-2.606.016-5.211l.038-2.466c-.018-4.44-.33-6.951-3.366-10.245.277-2.352.943-3.887 2-6 .111-2.92.164-5.814.168-8.734l.01-2.64q.007-2.768.007-5.537c.002-2.814.02-5.627.04-8.44q.005-2.693.005-5.383l.022-2.539c-.018-4.643-.473-8.357-2.252-12.727"/><path fill="#E5E5E5" d="M86 289h4v2l2.125.375c3.052.663 5.928 1.597 8.875 2.625l-.96 2.117c-3.479 9.649-2.161 21.865-2.228 32.008l-.04 3.594-.002 3.414-.013 3.059c.256 2.958 1.082 5.096 2.243 7.808-.363 3.086-1.217 4.325-3 7-.365 2.006-.365 2.006-.414 4.219l-.118 2.548-.093 2.733-.113 2.813a586 586 0 0 0-.387 19.125l-.014 2.343c.012 4.182.316 8.1 1.139 12.219-5.239-.551-9.974-1.43-15-3l1-5h2q.074-8.993.11-17.987.015-3.057.04-6.113c.025-2.937.037-5.873.045-8.81l.032-2.74c0-3.993-.098-7.383-1.427-11.168-.8-3.182-.8-3.182.543-5.785L86 336c.496-2.61.496-2.61.512-5.36.035-1.025.07-2.05.108-3.108l.067-3.282.1-3.368c.09-3.294.156-6.587.213-9.882l.05-2.75c.288-9.692.288-9.692-1.05-19.25"/><path fill="#090909" d="m360 314 2.047.91 2.703 1.152 2.672 1.16c2.77.836 3.937.874 6.578-.222l2-2c.872 6.93 1.134 13.836 1.188 20.813l.039 2.46c.007 4.647-.445 8.354-2.227 12.727l1.935 1.544c2.745 3.264 2.772 5.522 3.112 9.749l.185 2.138c.19 2.251.354 4.503.518 6.757q.187 2.242.379 4.486c.79 9.524 1.483 18.854-.129 28.326h-4c-3.828-6.637-5.105-12.772-6.187-20.312q-.487-3.214-.981-6.426l-.415-2.845c-.377-2.549-.377-2.549-1.417-5.417-.095-2.31-.13-4.625-.125-6.937l-.008-3.715c.133-3.348.133-3.348.89-5.54L369 351l-1.892-1.7c-2.685-2.93-2.963-4.994-3.592-8.894l-.645-3.87-.621-4.036q-.332-2.017-.668-4.035C360 318.727 360 318.727 360 314"/><path fill="#0A0A0A" d="M396 306c1.819 5.631 2.587 11.055 3.125 16.938l.262 2.591c1.54 16.018 1.54 16.018-1.387 20.471-3.516 1.854-6.01 3-10 3q-.65-6.56-1.282-13.123-.216-2.225-.436-4.45c-.81-8.162-1.476-16.214-1.282-24.427 7.429-2.429 7.429-2.429 11-1"/><path fill="#060606" d="M134 308v52c-1.74-2.609-2.397-3.958-3.13-6.87l-.596-2.338-.622-2.519-.657-2.612q-.686-2.74-1.363-5.483c-.687-2.774-1.386-5.544-2.087-8.315q-.667-2.67-1.33-5.34l-.628-2.482c-1.31-5.343-2.08-10.562-2.587-16.041 2-1 2-1 13 0"/><path fill="#121212" d="M350 321h1q1.717 9.474 3.418 18.951.579 3.225 1.164 6.446.84 4.635 1.668 9.271l.53 2.905.486 2.729.43 2.388C359 366 359 366 359 371l-10 2c-.105-17.363-.167-34.666 1-52"/><path fill="#111" d="M284 305a1571 1571 0 0 1 8.438 3.875l2.431 1.105 2.315 1.075 2.142.984C301 313 301 313 302 315l-8 1v2c-3.76-1.254-4.476-2.707-6.687-5.937l-1.887-2.715C284 307 284 307 284 305"/><path fill="#0D0D0D" d="M299 301c4.194 1.486 7.627 3.583 11.313 6.063l3.238 2.16L316 311v1l-10 1q-1.754-2.716-3.5-5.437l-1.969-3.06C299 302 299 302 299 301"/><path fill="#090909" d="M278 308c4.81 2.547 8.324 4.99 12 9-3.62 1.316-6.096 2-10 2-1.193-3.877-2-6.916-2-11"/><path fill="#333" d="M350 321h1c.365 1.748.716 3.498 1.063 5.25l.597 2.953c.324 2.665.195 4.286-.66 6.797v-2h-2z"/><path fill="#C4C4C4" d="M161 314h2c-1.312 2.926-2.753 4.753-5 7-1.176 2.1-1.176 2.1-2 4l-1-2c1.787-3.45 3.259-6.259 6-9"/><path fill="#202020" d="M140 306h7l2 4-9-3z"/></svg>